<mxfile host="app.diagrams.net" modified="2021-08-07T17:06:23.084Z" agent="5.0 (Macintosh; Intel Mac OS X 10_15_7) AppleWebKit/605.1.15 (KHTML, like Gecko) Version/14.1.2 Safari/605.1.15" etag="xhMjxYQlrs-lTlrkMUWB" version="14.9.5" type="github">
  <diagram id="OqGBDC_Zstm0jYTMuQl1" name="Page-1">
    <mxGraphModel dx="716" dy="1131" grid="1" gridSize="10" guides="1" tooltips="1" connect="1" arrows="1" fold="1" page="1" pageScale="1" pageWidth="850" pageHeight="1100" math="0" shadow="0">
      <root>
        <mxCell id="0" />
        <mxCell id="1" parent="0" />
        <mxCell id="8JBKKvGhWpqiAWxiJutg-32" style="edgeStyle=orthogonalEdgeStyle;rounded=1;sketch=0;orthogonalLoop=1;jettySize=auto;html=1;fontColor=#5C5C5C;endArrow=none;endFill=0;strokeColor=#006658;fillColor=#21C0A5;entryX=1;entryY=0.5;entryDx=0;entryDy=0;entryPerimeter=0;" edge="1" parent="1" source="3Mv4m6igqVwUD6bReDEp-1" target="8JBKKvGhWpqiAWxiJutg-1">
          <mxGeometry relative="1" as="geometry">
            <mxPoint x="230" y="740" as="targetPoint" />
            <Array as="points">
              <mxPoint x="230" y="550" />
              <mxPoint x="230" y="735" />
            </Array>
          </mxGeometry>
        </mxCell>
        <mxCell id="3Mv4m6igqVwUD6bReDEp-1" value="" style="fontColor=#5C5C5C;verticalAlign=top;verticalLabelPosition=bottom;labelPosition=center;align=center;html=1;outlineConnect=0;fillColor=#21C0A5;strokeColor=#006658;gradientDirection=north;strokeWidth=2;shape=mxgraph.networks.pc;" parent="1" vertex="1">
          <mxGeometry x="75" y="515" width="100" height="70" as="geometry" />
        </mxCell>
        <mxCell id="8JBKKvGhWpqiAWxiJutg-29" style="edgeStyle=none;rounded=1;sketch=0;orthogonalLoop=1;jettySize=auto;html=1;fontColor=#5C5C5C;endArrow=none;endFill=0;strokeColor=#006658;fillColor=#21C0A5;" edge="1" parent="1" source="3Mv4m6igqVwUD6bReDEp-2" target="3Mv4m6igqVwUD6bReDEp-4">
          <mxGeometry relative="1" as="geometry" />
        </mxCell>
        <mxCell id="8JBKKvGhWpqiAWxiJutg-38" style="edgeStyle=orthogonalEdgeStyle;rounded=1;sketch=0;orthogonalLoop=1;jettySize=auto;html=1;fontColor=#5C5C5C;endArrow=none;endFill=0;strokeColor=#006658;fillColor=#21C0A5;" edge="1" parent="1" source="3Mv4m6igqVwUD6bReDEp-2" target="3Mv4m6igqVwUD6bReDEp-5">
          <mxGeometry relative="1" as="geometry">
            <Array as="points">
              <mxPoint x="710" y="25" />
              <mxPoint x="710" y="400" />
            </Array>
          </mxGeometry>
        </mxCell>
        <mxCell id="3Mv4m6igqVwUD6bReDEp-2" value="" style="fontColor=#5C5C5C;verticalAlign=top;verticalLabelPosition=bottom;labelPosition=center;align=center;html=1;outlineConnect=0;fillColor=#21C0A5;strokeColor=#006658;gradientDirection=north;strokeWidth=2;shape=mxgraph.networks.router;" parent="1" vertex="1">
          <mxGeometry x="555" y="10" width="100" height="30" as="geometry" />
        </mxCell>
        <mxCell id="8JBKKvGhWpqiAWxiJutg-30" style="edgeStyle=none;rounded=1;sketch=0;orthogonalLoop=1;jettySize=auto;html=1;fontColor=#5C5C5C;endArrow=none;endFill=0;strokeColor=#006658;fillColor=#21C0A5;" edge="1" parent="1" source="3Mv4m6igqVwUD6bReDEp-4" target="3Mv4m6igqVwUD6bReDEp-14">
          <mxGeometry relative="1" as="geometry" />
        </mxCell>
        <mxCell id="3Mv4m6igqVwUD6bReDEp-4" value="" style="fontColor=#5C5C5C;verticalAlign=top;verticalLabelPosition=bottom;labelPosition=center;align=center;html=1;outlineConnect=0;fillColor=#21C0A5;strokeColor=#006658;gradientDirection=north;strokeWidth=2;shape=mxgraph.networks.switch;" parent="1" vertex="1">
          <mxGeometry x="585" y="130" width="100" height="30" as="geometry" />
        </mxCell>
        <mxCell id="3Mv4m6igqVwUD6bReDEp-5" value="" style="fontColor=#5C5C5C;verticalAlign=top;verticalLabelPosition=bottom;labelPosition=center;align=center;html=1;outlineConnect=0;fillColor=#21C0A5;strokeColor=#006658;gradientDirection=north;strokeWidth=2;shape=mxgraph.networks.server;" parent="1" vertex="1">
          <mxGeometry x="550" y="350" width="90" height="100" as="geometry" />
        </mxCell>
        <mxCell id="8JBKKvGhWpqiAWxiJutg-25" style="edgeStyle=none;rounded=1;sketch=0;orthogonalLoop=1;jettySize=auto;html=1;entryX=0.1;entryY=1;entryDx=0;entryDy=0;entryPerimeter=0;fontColor=#5C5C5C;endArrow=none;endFill=0;strokeColor=#006658;fillColor=#21C0A5;" edge="1" parent="1" source="3Mv4m6igqVwUD6bReDEp-6" target="8JBKKvGhWpqiAWxiJutg-6">
          <mxGeometry relative="1" as="geometry" />
        </mxCell>
        <mxCell id="8JBKKvGhWpqiAWxiJutg-26" style="edgeStyle=none;rounded=1;sketch=0;orthogonalLoop=1;jettySize=auto;html=1;entryX=0;entryY=0.5;entryDx=0;entryDy=0;entryPerimeter=0;fontColor=#5C5C5C;endArrow=none;endFill=0;strokeColor=#006658;fillColor=#21C0A5;" edge="1" parent="1" source="3Mv4m6igqVwUD6bReDEp-6" target="8JBKKvGhWpqiAWxiJutg-7">
          <mxGeometry relative="1" as="geometry" />
        </mxCell>
        <mxCell id="3Mv4m6igqVwUD6bReDEp-6" value="" style="fontColor=#5C5C5C;verticalAlign=top;verticalLabelPosition=bottom;labelPosition=center;align=center;html=1;outlineConnect=0;fillColor=#21C0A5;strokeColor=#006658;gradientDirection=north;strokeWidth=2;shape=mxgraph.networks.firewall;" parent="1" vertex="1">
          <mxGeometry x="140" y="80" width="100" height="100" as="geometry" />
        </mxCell>
        <mxCell id="8JBKKvGhWpqiAWxiJutg-24" style="edgeStyle=none;rounded=1;sketch=0;orthogonalLoop=1;jettySize=auto;html=1;fontColor=#5C5C5C;endArrow=none;endFill=0;strokeColor=#006658;fillColor=#21C0A5;" edge="1" parent="1" source="3Mv4m6igqVwUD6bReDEp-7" target="3Mv4m6igqVwUD6bReDEp-6">
          <mxGeometry relative="1" as="geometry" />
        </mxCell>
        <mxCell id="3Mv4m6igqVwUD6bReDEp-7" value="" style="html=1;outlineConnect=0;fillColor=#21C0A5;strokeColor=#006658;gradientDirection=north;strokeWidth=2;shape=mxgraph.networks.cloud;fontColor=#5C5C5C;" parent="1" vertex="1">
          <mxGeometry x="10" y="50" width="100" height="50" as="geometry" />
        </mxCell>
        <mxCell id="8JBKKvGhWpqiAWxiJutg-36" style="edgeStyle=orthogonalEdgeStyle;rounded=1;sketch=0;orthogonalLoop=1;jettySize=auto;html=1;entryX=1;entryY=0.5;entryDx=0;entryDy=0;entryPerimeter=0;fontColor=#5C5C5C;endArrow=none;endFill=0;fillColor=#21C0A5;strokeWidth=7;strokeColor=#660E14;" edge="1" parent="1" target="8JBKKvGhWpqiAWxiJutg-3">
          <mxGeometry relative="1" as="geometry">
            <mxPoint x="460" y="540" as="sourcePoint" />
            <Array as="points">
              <mxPoint x="460" y="735" />
            </Array>
          </mxGeometry>
        </mxCell>
        <mxCell id="3Mv4m6igqVwUD6bReDEp-8" value="" style="fontColor=#5C5C5C;verticalAlign=top;verticalLabelPosition=bottom;labelPosition=center;align=center;html=1;outlineConnect=0;fillColor=#21C0A5;strokeColor=#006658;gradientDirection=north;strokeWidth=2;shape=mxgraph.networks.pc;" parent="1" vertex="1">
          <mxGeometry x="330" y="505" width="100" height="70" as="geometry" />
        </mxCell>
        <mxCell id="3Mv4m6igqVwUD6bReDEp-16" style="edgeStyle=elbowEdgeStyle;rounded=0;orthogonalLoop=1;jettySize=auto;html=1;strokeColor=#006658;fontColor=#5C5C5C;endArrow=none;endFill=0;" parent="1" source="3Mv4m6igqVwUD6bReDEp-14" target="3Mv4m6igqVwUD6bReDEp-1" edge="1">
          <mxGeometry relative="1" as="geometry">
            <mxPoint x="150" y="290" as="targetPoint" />
            <Array as="points">
              <mxPoint x="280" y="550" />
            </Array>
          </mxGeometry>
        </mxCell>
        <mxCell id="8JBKKvGhWpqiAWxiJutg-35" style="edgeStyle=orthogonalEdgeStyle;rounded=1;sketch=0;orthogonalLoop=1;jettySize=auto;html=1;entryX=1;entryY=0.5;entryDx=0;entryDy=0;entryPerimeter=0;fontColor=#5C5C5C;endArrow=none;endFill=0;fillColor=#21C0A5;strokeWidth=6;strokeColor=#660D13;" edge="1" parent="1" source="8JBKKvGhWpqiAWxiJutg-39" target="3Mv4m6igqVwUD6bReDEp-8">
          <mxGeometry relative="1" as="geometry">
            <Array as="points">
              <mxPoint x="465" y="413" />
              <mxPoint x="465" y="540" />
            </Array>
          </mxGeometry>
        </mxCell>
        <mxCell id="3Mv4m6igqVwUD6bReDEp-14" value="" style="fontColor=#5C5C5C;verticalAlign=top;verticalLabelPosition=bottom;labelPosition=center;align=center;html=1;outlineConnect=0;fillColor=#21C0A5;strokeColor=#006658;gradientColor=none;gradientDirection=north;strokeWidth=2;shape=mxgraph.networks.patch_panel;fontFamily=Helvetica;fontSize=12;" parent="1" vertex="1">
          <mxGeometry x="500" y="215" width="120" height="60" as="geometry" />
        </mxCell>
        <mxCell id="3Mv4m6igqVwUD6bReDEp-19" value="CP-2" style="text;html=1;resizable=0;autosize=1;align=center;verticalAlign=middle;points=[];fillColor=none;strokeColor=none;rounded=0;fontColor=#5C5C5C;" parent="1" vertex="1">
          <mxGeometry x="365" y="585" width="40" height="20" as="geometry" />
        </mxCell>
        <mxCell id="3Mv4m6igqVwUD6bReDEp-20" value="CP-1" style="text;html=1;resizable=0;autosize=1;align=center;verticalAlign=middle;points=[];fillColor=none;strokeColor=none;rounded=0;fontColor=#5C5C5C;" parent="1" vertex="1">
          <mxGeometry x="125" y="605" width="40" height="20" as="geometry" />
        </mxCell>
        <mxCell id="3Mv4m6igqVwUD6bReDEp-21" value="Cloud" style="text;html=1;resizable=0;autosize=1;align=center;verticalAlign=middle;points=[];fillColor=none;strokeColor=none;rounded=0;fontColor=#5C5C5C;" parent="1" vertex="1">
          <mxGeometry x="75" y="160" width="50" height="20" as="geometry" />
        </mxCell>
        <mxCell id="3Mv4m6igqVwUD6bReDEp-22" value="&lt;span style=&quot;font-style: normal ; font-weight: normal ; letter-spacing: normal ; text-indent: 0px ; text-transform: none ; word-spacing: 0px ; text-decoration: none ; color: rgb(121 , 192 , 255) ; font-size: 12px ; background-color: rgb(13 , 17 , 23) ; float: none ; display: inline&quot;&gt;Firewall&lt;/span&gt;" style="text;html=1;resizable=0;autosize=1;align=center;verticalAlign=middle;points=[];fillColor=none;strokeColor=none;rounded=0;fontColor=#5C5C5C;" parent="1" vertex="1">
          <mxGeometry x="220" y="200" width="60" height="20" as="geometry" />
        </mxCell>
        <mxCell id="3Mv4m6igqVwUD6bReDEp-23" value="Router" style="text;html=1;resizable=0;autosize=1;align=center;verticalAlign=middle;points=[];fillColor=none;strokeColor=none;rounded=0;fontColor=#5C5C5C;" parent="1" vertex="1">
          <mxGeometry x="580" y="70" width="50" height="20" as="geometry" />
        </mxCell>
        <mxCell id="3Mv4m6igqVwUD6bReDEp-25" value="Server" style="text;html=1;resizable=0;autosize=1;align=center;verticalAlign=middle;points=[];fillColor=none;strokeColor=none;rounded=0;fontColor=#5C5C5C;" parent="1" vertex="1">
          <mxGeometry x="575" y="470" width="50" height="20" as="geometry" />
        </mxCell>
        <mxCell id="3Mv4m6igqVwUD6bReDEp-26" value="Switch" style="text;html=1;resizable=0;autosize=1;align=center;verticalAlign=middle;points=[];fillColor=none;strokeColor=none;rounded=0;fontColor=#5C5C5C;" parent="1" vertex="1">
          <mxGeometry x="565" y="160" width="50" height="20" as="geometry" />
        </mxCell>
        <mxCell id="3Mv4m6igqVwUD6bReDEp-28" value="Patch" style="text;html=1;resizable=0;autosize=1;align=center;verticalAlign=middle;points=[];fillColor=none;strokeColor=none;rounded=0;sketch=0;fontColor=#5C5C5C;" parent="1" vertex="1">
          <mxGeometry x="535" y="290" width="50" height="20" as="geometry" />
        </mxCell>
        <mxCell id="8JBKKvGhWpqiAWxiJutg-34" style="edgeStyle=orthogonalEdgeStyle;rounded=1;sketch=0;orthogonalLoop=1;jettySize=auto;html=1;entryX=1;entryY=0.5;entryDx=0;entryDy=0;entryPerimeter=0;fontColor=#5C5C5C;endArrow=none;endFill=0;strokeColor=#006658;fillColor=#21C0A5;" edge="1" parent="1" target="8JBKKvGhWpqiAWxiJutg-2">
          <mxGeometry relative="1" as="geometry">
            <mxPoint x="230" y="735" as="sourcePoint" />
            <Array as="points">
              <mxPoint x="230" y="925" />
            </Array>
          </mxGeometry>
        </mxCell>
        <mxCell id="8JBKKvGhWpqiAWxiJutg-1" value="" style="fontColor=#5C5C5C;verticalAlign=top;verticalLabelPosition=bottom;labelPosition=center;align=center;html=1;outlineConnect=0;fillColor=#21C0A5;strokeColor=#006658;gradientDirection=north;strokeWidth=2;shape=mxgraph.networks.pc;" vertex="1" parent="1">
          <mxGeometry x="70" y="700" width="100" height="70" as="geometry" />
        </mxCell>
        <mxCell id="8JBKKvGhWpqiAWxiJutg-2" value="" style="fontColor=#5C5C5C;verticalAlign=top;verticalLabelPosition=bottom;labelPosition=center;align=center;html=1;outlineConnect=0;fillColor=#21C0A5;strokeColor=#006658;gradientDirection=north;strokeWidth=2;shape=mxgraph.networks.pc;" vertex="1" parent="1">
          <mxGeometry x="70" y="890" width="100" height="70" as="geometry" />
        </mxCell>
        <mxCell id="8JBKKvGhWpqiAWxiJutg-37" style="edgeStyle=orthogonalEdgeStyle;rounded=1;sketch=0;orthogonalLoop=1;jettySize=auto;html=1;entryX=1;entryY=0.5;entryDx=0;entryDy=0;entryPerimeter=0;fontColor=#5C5C5C;endArrow=none;endFill=0;fillColor=#21C0A5;strokeWidth=8;strokeColor=#660A1A;" edge="1" parent="1" target="8JBKKvGhWpqiAWxiJutg-4">
          <mxGeometry relative="1" as="geometry">
            <mxPoint x="460" y="735" as="sourcePoint" />
            <Array as="points">
              <mxPoint x="460" y="915" />
            </Array>
          </mxGeometry>
        </mxCell>
        <mxCell id="8JBKKvGhWpqiAWxiJutg-3" value="" style="fontColor=#5C5C5C;verticalAlign=top;verticalLabelPosition=bottom;labelPosition=center;align=center;html=1;outlineConnect=0;fillColor=#21C0A5;strokeColor=#006658;gradientDirection=north;strokeWidth=2;shape=mxgraph.networks.pc;" vertex="1" parent="1">
          <mxGeometry x="330" y="700" width="100" height="70" as="geometry" />
        </mxCell>
        <mxCell id="8JBKKvGhWpqiAWxiJutg-4" value="" style="fontColor=#5C5C5C;verticalAlign=top;verticalLabelPosition=bottom;labelPosition=center;align=center;html=1;outlineConnect=0;fillColor=#21C0A5;strokeColor=#006658;gradientDirection=north;strokeWidth=2;shape=mxgraph.networks.pc;" vertex="1" parent="1">
          <mxGeometry x="330" y="880" width="100" height="70" as="geometry" />
        </mxCell>
        <mxCell id="8JBKKvGhWpqiAWxiJutg-40" style="edgeStyle=orthogonalEdgeStyle;rounded=1;sketch=0;orthogonalLoop=1;jettySize=auto;html=1;fontColor=#5C5C5C;endArrow=none;endFill=0;fillColor=#21C0A5;strokeWidth=8;strokeColor=#66090F;" edge="1" parent="1" source="8JBKKvGhWpqiAWxiJutg-5" target="8JBKKvGhWpqiAWxiJutg-39">
          <mxGeometry relative="1" as="geometry" />
        </mxCell>
        <mxCell id="8JBKKvGhWpqiAWxiJutg-5" value="" style="fontColor=#5C5C5C;verticalAlign=top;verticalLabelPosition=bottom;labelPosition=center;align=center;html=1;outlineConnect=0;fillColor=#21C0A5;strokeColor=#006658;gradientDirection=north;strokeWidth=2;shape=mxgraph.networks.firewall;" vertex="1" parent="1">
          <mxGeometry x="75" y="215" width="100" height="100" as="geometry" />
        </mxCell>
        <mxCell id="8JBKKvGhWpqiAWxiJutg-27" style="edgeStyle=none;rounded=1;sketch=0;orthogonalLoop=1;jettySize=auto;html=1;entryX=0;entryY=0.5;entryDx=0;entryDy=0;entryPerimeter=0;fontColor=#5C5C5C;endArrow=none;endFill=0;strokeColor=#006658;fillColor=#21C0A5;" edge="1" parent="1" source="8JBKKvGhWpqiAWxiJutg-6" target="3Mv4m6igqVwUD6bReDEp-2">
          <mxGeometry relative="1" as="geometry" />
        </mxCell>
        <mxCell id="8JBKKvGhWpqiAWxiJutg-6" value="" style="fontColor=#0066CC;verticalAlign=top;verticalLabelPosition=bottom;labelPosition=center;align=center;html=1;outlineConnect=0;fillColor=#CCCCCC;strokeColor=#6881B3;gradientColor=none;gradientDirection=north;strokeWidth=2;shape=mxgraph.networks.load_balancer;rounded=0;sketch=0;" vertex="1" parent="1">
          <mxGeometry x="300" y="20" width="100" height="30" as="geometry" />
        </mxCell>
        <mxCell id="8JBKKvGhWpqiAWxiJutg-28" style="edgeStyle=none;rounded=1;sketch=0;orthogonalLoop=1;jettySize=auto;html=1;fontColor=#5C5C5C;endArrow=none;endFill=0;strokeColor=#006658;fillColor=#21C0A5;" edge="1" parent="1" source="8JBKKvGhWpqiAWxiJutg-7" target="3Mv4m6igqVwUD6bReDEp-2">
          <mxGeometry relative="1" as="geometry" />
        </mxCell>
        <mxCell id="8JBKKvGhWpqiAWxiJutg-7" value="" style="fontColor=#0066CC;verticalAlign=top;verticalLabelPosition=bottom;labelPosition=center;align=center;html=1;outlineConnect=0;fillColor=#CCCCCC;strokeColor=#6881B3;gradientColor=none;gradientDirection=north;strokeWidth=2;shape=mxgraph.networks.load_balancer;rounded=0;sketch=0;" vertex="1" parent="1">
          <mxGeometry x="350" y="130" width="100" height="30" as="geometry" />
        </mxCell>
        <mxCell id="8JBKKvGhWpqiAWxiJutg-8" value="Load Balance" style="text;html=1;resizable=0;autosize=1;align=center;verticalAlign=middle;points=[];fillColor=none;strokeColor=none;rounded=0;sketch=0;fontColor=#5C5C5C;" vertex="1" parent="1">
          <mxGeometry x="360" y="170" width="90" height="20" as="geometry" />
        </mxCell>
        <mxCell id="8JBKKvGhWpqiAWxiJutg-9" value="Load Balance" style="text;html=1;resizable=0;autosize=1;align=center;verticalAlign=middle;points=[];fillColor=none;strokeColor=none;rounded=0;sketch=0;fontColor=#5C5C5C;" vertex="1" parent="1">
          <mxGeometry x="270" y="65" width="90" height="20" as="geometry" />
        </mxCell>
        <mxCell id="8JBKKvGhWpqiAWxiJutg-10" value="CP-6" style="text;html=1;resizable=0;autosize=1;align=center;verticalAlign=middle;points=[];fillColor=none;strokeColor=none;rounded=0;sketch=0;fontColor=#5C5C5C;" vertex="1" parent="1">
          <mxGeometry x="100" y="780" width="40" height="20" as="geometry" />
        </mxCell>
        <mxCell id="8JBKKvGhWpqiAWxiJutg-11" value="CP-3" style="text;html=1;resizable=0;autosize=1;align=center;verticalAlign=middle;points=[];fillColor=none;strokeColor=none;rounded=0;sketch=0;fontColor=#5C5C5C;" vertex="1" parent="1">
          <mxGeometry x="360" y="800" width="40" height="20" as="geometry" />
        </mxCell>
        <mxCell id="8JBKKvGhWpqiAWxiJutg-12" value="CP-4" style="text;html=1;resizable=0;autosize=1;align=center;verticalAlign=middle;points=[];fillColor=none;strokeColor=none;rounded=0;sketch=0;fontColor=#5C5C5C;" vertex="1" parent="1">
          <mxGeometry x="365" y="990" width="40" height="20" as="geometry" />
        </mxCell>
        <mxCell id="8JBKKvGhWpqiAWxiJutg-13" value="CP-5" style="text;html=1;resizable=0;autosize=1;align=center;verticalAlign=middle;points=[];fillColor=none;strokeColor=none;rounded=0;sketch=0;fontColor=#5C5C5C;" vertex="1" parent="1">
          <mxGeometry x="110" y="1000" width="40" height="20" as="geometry" />
        </mxCell>
        <mxCell id="8JBKKvGhWpqiAWxiJutg-39" value="" style="fontColor=#0066CC;verticalAlign=top;verticalLabelPosition=bottom;labelPosition=center;align=center;html=1;outlineConnect=0;fillColor=#CCCCCC;strokeColor=#6881B3;gradientColor=none;gradientDirection=north;strokeWidth=2;shape=mxgraph.networks.wireless_modem;rounded=0;sketch=0;" vertex="1" parent="1">
          <mxGeometry x="75" y="370" width="100" height="85" as="geometry" />
        </mxCell>
        <mxCell id="8JBKKvGhWpqiAWxiJutg-41" value="&lt;span style=&quot;font-style: normal ; font-weight: normal ; letter-spacing: normal ; text-indent: 0px ; text-transform: none ; word-spacing: 0px ; text-decoration: none ; color: rgb(121 , 192 , 255) ; font-size: 12px ; background-color: rgb(13 , 17 , 23) ; float: none ; display: inline&quot;&gt;Wireless firewall&lt;/span&gt;" style="text;html=1;resizable=0;autosize=1;align=center;verticalAlign=middle;points=[];fillColor=none;strokeColor=none;rounded=0;fontColor=#5C5C5C;" vertex="1" parent="1">
          <mxGeometry x="10" y="330" width="100" height="20" as="geometry" />
        </mxCell>
        <mxCell id="8JBKKvGhWpqiAWxiJutg-42" value="&lt;span style=&quot;font-style: normal ; font-weight: normal ; letter-spacing: normal ; text-indent: 0px ; text-transform: none ; word-spacing: 0px ; text-decoration: none ; color: rgb(121 , 192 , 255) ; font-size: 12px ; background-color: rgb(13 , 17 , 23) ; float: none ; display: inline&quot;&gt;Wireless&lt;/span&gt;" style="text;html=1;resizable=0;autosize=1;align=center;verticalAlign=middle;points=[];fillColor=none;strokeColor=none;rounded=0;fontColor=#5C5C5C;" vertex="1" parent="1">
          <mxGeometry x="10" y="430" width="60" height="20" as="geometry" />
        </mxCell>
      </root>
    </mxGraphModel>
  </diagram>
</mxfile>
